<?xml version="1.0" encoding="UTF-8"?>
<svg width="200px" height="52px" viewBox="0 0 200 52" version="1.1" xmlns="http://www.w3.org/2000/svg" xmlns:xlink="http://www.w3.org/1999/xlink">
    <title>amara</title>
    <g id="Logotype---black" stroke="none" stroke-width="1" fill="none" fill-rule="evenodd">
        <g id="amara" fill="#01060B">
            <path d="M25.5485564,20.2703412 C24.11512,20.2243599 22.7273855,20.7779318 21.7191601,21.7979003 C20.7130359,22.816273 20.2099738,24.1242345 20.2099738,25.7217848 C20.2099738,27.3193351 20.712161,28.631671 21.7165354,29.6587927 C22.7240388,30.6798498 24.1122698,31.2336199 25.5459318,31.1863517 C26.985301,31.2308898 28.3789672,30.6779834 29.3963255,29.6587927 C30.4129484,28.6421697 30.9212598,27.3298338 30.9212598,25.7217848 C30.9212598,24.1137358 30.4129484,22.8013998 29.3963255,21.7847769 C28.376685,20.7721349 26.984869,20.2243329 25.5485564,20.2703412 L25.5485564,20.2703412 Z" id="Path"></path>
            <path d="M26.2467192,8.66141732 C16.8245384,8.66141732 9.18635171,16.299604 9.18635171,25.7217848 C9.18635171,35.1439655 16.8245384,42.7821522 26.2467192,42.7821522 C35.6688999,42.7821522 43.3070866,35.1439655 43.3070866,25.7217848 C43.2955173,16.3044003 35.6641036,8.6729866 26.2467192,8.66141732 Z M35.9107612,35.3884514 L30.9238845,35.3884514 L30.9238845,33.1076115 C29.4313211,34.9903762 27.3315836,35.9308836 24.6246719,35.9291363 C22.0472441,35.9291363 19.8363955,34.9431321 17.992126,32.9711286 C16.1478565,30.9991251 15.2248469,28.5826772 15.2230971,25.7217848 C15.2230971,22.8608924 16.144357,20.4444444 17.9868766,18.4724409 C19.8293963,16.5004374 22.040245,15.5144357 24.6194226,15.5144357 C27.3263342,15.5144357 29.4260717,16.4549431 30.9186352,18.335958 L30.9186352,16.0551181 L35.9055118,16.0551181 L35.9107612,35.3884514 Z" id="Shape" fill-rule="nonzero"></path>
            <path d="M52.4934383,25.7217848 C52.4934383,23.7716535 50.7637795,22.0472441 50.3490814,20.2099738 C49.9212598,18.3254593 50.7191601,16.0104987 49.9002625,14.32021 C49.0813648,12.6299213 46.7506562,11.7847769 45.5721785,10.2992126 C44.3937008,8.81364829 44.0944882,6.39107612 42.6115486,5.19947507 C41.1286089,4.00787402 38.7007874,4.27821522 36.9737533,3.44619423 C35.2467192,2.61417323 33.9711286,0.559055118 32.0892388,0.128608924 C30.2519685,-0.286089239 28.1968504,1.00524934 26.2467192,1.00524934 C24.2965879,1.00524934 22.2283465,-0.286089239 20.4041995,0.128608924 C18.5223097,0.556430446 17.2204724,2.62467192 15.519685,3.44619423 C13.8188976,4.26771654 11.3648294,4.01574803 9.88188976,5.19947507 C8.39895013,6.3832021 8.11023622,8.81889764 6.92125984,10.3097113 C5.73228346,11.8005249 3.42782152,12.5984252 2.59317585,14.3307087 C1.75853018,16.0629921 2.57217848,18.335958 2.14435696,20.2099738 C1.72965879,22.0472441 0,23.7716535 0,25.7217848 C0,27.671916 1.72965879,29.3963255 2.14435696,31.2335958 C2.57217848,33.1181102 1.77427822,35.4330709 2.59317585,37.1233596 C3.41207349,38.8136483 5.74278215,39.6587927 6.92125984,41.144357 C8.09973753,42.6299213 8.39107612,45.0629921 9.88188976,46.2545932 C11.3727034,47.4461942 13.7926509,47.175853 15.519685,48.007874 C17.2467192,48.839895 18.5223097,50.8950131 20.4041995,51.3254593 C22.2414698,51.7401575 24.2965879,50.4488189 26.2467192,50.4488189 C28.1968504,50.4488189 30.2650919,51.7401575 32.0892388,51.3254593 C33.9711286,50.8976378 35.2729659,48.8267717 36.9737533,48.007874 C38.6745407,47.1889764 41.1286089,47.4383202 42.6115486,46.2545932 C44.0944882,45.0708661 44.3832021,42.6351706 45.5721785,41.144357 C46.7611549,39.6535433 49.0656168,38.8503937 49.9002625,37.1233596 C50.7349081,35.3963255 49.9212598,33.1181102 50.3490814,31.2335958 C50.7637795,29.3963255 52.4934383,27.671916 52.4934383,25.7217848 Z M26.2467192,43.832021 C16.2447119,43.832021 8.13648294,35.7237921 8.13648294,25.7217848 C8.13648294,15.7197775 16.2447119,7.61154856 26.2467192,7.61154856 C36.2487264,7.61154856 44.3569554,15.7197775 44.3569554,25.7217848 C44.3468281,35.7195942 36.2445286,43.8218937 26.2467192,43.832021 Z" id="Shape" fill-rule="nonzero"></path>
            <path d="M82.7611549,13.2467192 L87.1076115,13.2467192 L87.1076115,38.1968504 L82.7611549,38.1968504 L82.7611549,33.9055118 C80.6054243,37.1986002 77.4593176,38.8451444 73.3228346,38.8451444 C69.937099,38.8919526 66.6892336,37.5058662 64.3805774,35.0288714 C61.9168854,32.4829396 60.6850394,29.3805774 60.6850394,25.7217848 C60.6850394,22.0629921 61.9168854,18.9606299 64.3805774,16.4146982 C66.6892336,13.9377034 69.937099,12.551617 73.3228346,12.5984252 C77.4505687,12.5984252 80.600175,14.2449694 82.7716535,17.5380577 L82.7611549,13.2467192 Z M73.8713911,34.6456693 C76.4015748,34.6456693 78.5161855,33.7891514 80.2152231,32.0761155 C81.9142607,30.3630796 82.7629046,28.2423447 82.7611576,25.7139108 C82.7611576,23.1872266 81.9125109,21.0664917 80.2152231,19.351706 C78.5179353,17.6369204 76.4033246,16.7856518 73.8713911,16.7979003 C71.5056474,16.7409481 69.2231014,17.6720367 67.5721785,19.3674541 C65.8731409,21.0822397 65.0244969,23.2029746 65.026244,25.7296588 C65.0279965,28.256343 65.8766404,30.3770779 67.5721785,32.0918635 C69.2258036,33.7814971 71.508002,34.7067383 73.8713911,34.6456693 L73.8713911,34.6456693 Z" id="Shape" fill-rule="nonzero"></path>
            <path d="M118.674541,12.5984252 C121.474191,12.5984252 123.739283,13.5048119 125.469816,15.3175853 C127.20035,17.1303587 128.065617,19.5800525 128.065617,22.6666667 L128.065617,38.1863517 L123.71916,38.1863517 L123.71916,22.8346457 C123.71916,20.9098863 123.220472,19.4129484 122.223097,18.343832 C121.225722,17.2747157 119.893263,16.7427822 118.225722,16.7480315 C116.358705,16.7480315 114.871391,17.3718285 113.76378,18.6194226 C112.656168,19.8670166 112.092738,21.7690289 112.073491,24.3254593 L112.073491,38.1968504 L107.737533,38.1968504 L107.737533,22.8346457 C107.737533,20.9098863 107.262467,19.4129484 106.312336,18.343832 C105.362205,17.2747157 104.071741,16.7401575 102.440945,16.7401575 C100.71805,16.6957824 99.0572369,17.3845286 97.8713911,18.6351706 C96.6570429,19.9002625 96.0498688,21.7970254 96.0498688,24.3254593 L96.0498688,38.1968504 L91.7034121,38.1968504 L91.7034121,13.2467192 L96.0629921,13.2467192 L96.0629921,16.5905512 C97.7532808,13.9291339 100.229221,12.5984252 103.490814,12.5984252 C106.852143,12.5984252 109.301837,14.0122485 110.839895,16.839895 C112.566929,14.0122485 115.178478,12.5984252 118.674541,12.5984252 Z" id="Path"></path>
            <path d="M152.790026,13.2467192 L157.136483,13.2467192 L157.136483,38.1968504 L152.790026,38.1968504 L152.790026,33.9055118 C150.625547,37.1986002 147.47944,38.8451444 143.351706,38.8451444 C139.852143,38.8451444 136.871391,37.5730534 134.409449,35.0288714 C131.947507,32.4846894 130.713911,29.3823272 130.708661,25.7217848 C130.708661,22.0629921 131.940507,18.9606299 134.404199,16.4146982 C136.867892,13.8687664 139.850394,12.5966754 143.351706,12.5984234 C147.48119,12.5984234 150.630796,14.2449694 152.800525,17.5380577 L152.790026,13.2467192 Z M143.900262,34.6456693 C146.430446,34.6456693 148.545057,33.7891514 150.244094,32.0761155 C151.943132,30.3630796 152.791776,28.2423447 152.790029,25.7139108 C152.790029,23.1872266 151.941382,21.0664917 150.244094,19.351706 C148.546807,17.6369204 146.432196,16.7856518 143.900262,16.7979003 C141.534519,16.7409481 139.251973,17.6720367 137.60105,19.3674541 C135.902012,21.0822397 135.052493,23.2029746 135.052493,25.7296588 C135.052493,28.256343 135.902012,30.3770779 137.60105,32.0918635 C139.254675,33.7814971 141.536873,34.7067383 143.900262,34.6456693 L143.900262,34.6456693 Z" id="Shape" fill-rule="nonzero"></path>
            <path d="M166.076115,17.4383202 C167.509186,14.3429571 170.106737,12.7961505 173.868766,12.7978988 L173.868766,17.3385827 C171.737533,17.2388451 169.906387,17.8040245 168.375328,19.0341207 C166.844269,20.264217 166.077865,22.2440945 166.076115,24.9737533 L166.076115,38.1968504 L161.732283,38.1968504 L161.732283,13.2467192 L166.076115,13.2467192 L166.076115,17.4383202 Z" id="Path"></path>
            <path d="M195.446194,13.2467192 L199.792651,13.2467192 L199.792651,38.1968504 L195.446194,38.1968504 L195.446194,33.9055118 C193.281715,37.1986002 190.135608,38.8451444 186.007874,38.8451444 C182.508311,38.8451444 179.527559,37.5730534 177.065617,35.0288714 C174.603675,32.4846894 173.371829,29.3823272 173.370079,25.7217848 C173.370079,22.0629921 174.601925,18.9606299 177.065617,16.4146982 C179.529309,13.8687664 182.510061,12.5966754 186.007874,12.5984234 C190.135608,12.5984234 193.285214,14.2449694 195.456693,17.5380577 L195.446194,13.2467192 Z M186.55643,34.6456693 C189.086614,34.6456693 191.201225,33.7891514 192.900262,32.0761155 C194.5993,30.3630796 195.447944,28.2423447 195.446197,25.7139108 C195.446197,23.1872266 194.59755,21.0664917 192.900262,19.351706 C191.202975,17.6369204 189.088364,16.7856518 186.55643,16.7979003 C184.190687,16.7409481 181.908141,17.6720367 180.257218,19.3674541 C178.55993,21.0822397 177.710411,23.2029746 177.708659,25.7296588 C177.706912,28.256343 178.55643,30.3770779 180.257218,32.0918635 C181.910843,33.7814971 184.193041,34.7067383 186.55643,34.6456693 L186.55643,34.6456693 Z" id="Shape" fill-rule="nonzero"></path>
        </g>
    </g>
</svg>