<?xml version="1.0" encoding="UTF-8"?>
<svg width="200px" height="47px" viewBox="0 0 200 47" version="1.1" xmlns="http://www.w3.org/2000/svg" xmlns:xlink="http://www.w3.org/1999/xlink">
    <title>asgardia-2</title>
    <g id="Logotype---black" stroke="none" stroke-width="1" fill="none" fill-rule="evenodd">
        <g id="asgardia-2" fill="#000000">
            <polygon id="Path" points="18.8159437 46.8933177 15.2332943 46.8933177 15.2332943 0 18.8159437 2.98710434"></polygon>
            <polygon id="Path" points="7.46776084 46.8933177 11.0504103 46.8933177 11.0504103 9.08792497 7.46776084 12.0750293"></polygon>
            <polygon id="Path" points="0 46.8933177 3.58499414 46.8933177 3.58499414 18.049238 0 21.0363423"></polygon>
            <polygon id="Path" points="34.049238 46.8933177 30.4665885 46.8933177 30.4665885 18.049238 34.049238 21.0363423"></polygon>
            <polygon id="Path" points="26.5838218 46.8933177 22.9988277 46.8933177 22.9988277 9.08792497 26.5838218 12.0750293"></polygon>
            <path d="M47.0480657,29.9671747 L46.1899179,36.1078546 L42.3024619,36.1078546 L46.2883939,13.1746776 L51.6811254,13.1746776 L55.8030481,36.1078546 L51.8171161,36.1078546 L50.8440797,29.9742087 L47.0480657,29.9671747 Z M50.4103165,26.7127784 C49.8452521,22.8182884 49.3036342,19.123095 49.0222743,16.5275498 L48.8815944,16.5275498 C48.7760844,18.4173505 48.0328253,23.3270809 47.5404455,26.7127784 L50.4103165,26.7127784 Z" id="Shape" fill-rule="nonzero"></path>
            <path d="M68.4759672,29.3505275 L68.4759672,30.7573271 C68.4759672,32.4642438 69.0269637,33.4138335 70.4783118,33.4138335 C71.96483,33.4138335 72.3540445,32.1078546 72.3540445,30.6189918 C72.3540445,28.1524033 71.7796014,27.3880422 69.1277843,25.4607268 C66.4759672,23.5334115 65.0410317,22.2743259 65.0410317,18.869871 C65.0410317,15.8475967 66.028136,12.7971864 70.4900352,12.8018703 C75.0550996,12.8018703 75.7608441,15.8241501 75.7608441,18.3118406 L75.7608441,19.5381008 L71.9812427,19.5381008 L71.9812427,18.4079719 C71.9812427,16.8112544 71.6905041,15.8429074 70.4220399,15.8429074 C69.1535756,15.8429074 68.8581477,16.8417351 68.8581477,18.3634232 C68.8581477,19.9835873 69.1887456,20.7760844 71.3622509,22.2508792 C75.0621336,24.7901524 76.2016413,26.2602579 76.2016413,30.098476 C76.2016413,33.3528722 74.9730363,36.4290739 70.3587339,36.4290739 C65.7842907,36.4290739 64.6682298,33.7256741 64.6682298,30.7057444 L64.6682298,29.3434936 L68.4759672,29.3505275 Z" id="Path"></path>
            <path d="M97.4466589,36.1078546 L94.4736225,36.1078546 C94.3635759,35.5397621 94.2930667,34.9647205 94.2626026,34.3868699 C93.5779601,35.9109027 92.1524033,36.4431419 90.5463072,36.4431419 C86.9073857,36.4431419 85.7350528,34 85.7350528,30.112544 L85.7350528,19.3364596 C85.7350528,15.5849941 87.3083236,12.8323564 91.5967175,12.8323564 C96.7901524,12.8323564 97.3388042,16.3728019 97.3388042,18.8347011 L97.3388042,19.5803048 L93.5334115,19.5803048 L93.5334115,18.6611958 C93.5334115,17.4536928 93.3434936,16.0539273 91.6014068,16.0539273 C90.2110199,16.0539273 89.6178195,16.9449004 89.6178195,18.7784291 L89.6178195,30.5017585 C89.6178195,32.3376319 90.1922626,33.2966002 91.5709261,33.2966002 C93.2239156,33.2966002 93.6271981,32.014068 93.6271981,29.6553341 L93.6271981,26.3165299 L91.4630715,26.3165299 L91.4630715,23.2684642 L97.4466589,23.2684642 L97.4466589,36.1078546 Z" id="Path"></path>
            <path d="M111.617819,29.9671747 L110.752638,36.1078546 L106.872216,36.1078546 L110.858148,13.1746776 L116.250879,13.1746776 L120.379836,36.1078546 L116.393904,36.1078546 L115.423212,29.9742087 L111.617819,29.9671747 Z M114.973036,26.7127784 C114.405627,22.8182884 113.866354,19.123095 113.582649,16.5275498 L113.444314,16.5275498 C113.33646,18.4173505 112.5932,23.3270809 112.100821,26.7127784 L114.973036,26.7127784 Z" id="Shape" fill-rule="nonzero"></path>
            <path d="M133.411489,25.8452521 L133.411489,36.1078546 L129.599062,36.1078546 L129.599062,13.1676436 L134.881594,13.1676436 C138.644783,13.1676436 140.867526,14.5744431 140.867526,18.6940211 L140.867526,19.5662368 C140.867526,23.0832356 139.308324,23.9882767 138.349355,24.3516999 C139.791325,24.9800703 140.616647,25.943728 140.616647,29.0550996 C140.616647,30.9847597 140.579132,34.7104338 140.851114,36.1008206 L137.162954,36.1008206 C136.834701,34.7151231 136.905041,30.9425557 136.905041,29.2825322 C136.905041,26.4876905 136.518171,25.8452521 134.302462,25.8452521 L133.411489,25.8452521 Z M133.411489,22.926143 L134.286049,22.926143 C136.304807,22.926143 137.045721,22.2227433 137.045721,19.7256741 L137.045721,18.940211 C137.045721,17.1676436 136.649472,16.0867526 134.487691,16.0867526 L133.411489,16.0867526 L133.411489,22.926143 Z" id="Shape" fill-rule="nonzero"></path>
            <path d="M151.106682,13.1676436 L156.389215,13.1676436 C161.634232,13.1676436 162.912075,15.6881594 162.912075,19.943728 L162.912075,28.7385698 C162.912075,32.2555686 162.262603,36.1008206 156.379836,36.1008206 L151.106682,36.1008206 L151.106682,13.1676436 Z M154.921454,33.0973036 L156.154748,33.0973036 C158.661196,33.0973036 159.045721,31.6014068 159.045721,29.2262603 L159.045721,19.6647128 C159.045721,17.5545135 158.644783,16.2086753 156.131301,16.2086753 L154.930832,16.2086753 L154.921454,33.0973036 Z" id="Shape" fill-rule="nonzero"></path>
            <polygon id="Path" points="176.989449 13.1676436 176.989449 36.1078546 173.174678 36.1078546 173.174678 13.1676436"></polygon>
            <path d="M191.101993,29.9671747 L190.236811,36.1078546 L186.356389,36.1078546 L190.342321,13.1746776 L195.735053,13.1746776 L199.864009,36.1078546 L195.878077,36.1078546 L194.907386,29.9742087 L191.101993,29.9671747 Z M194.45721,26.7127784 C193.889801,22.8182884 193.350528,19.123095 193.066823,16.5275498 L192.928488,16.5275498 C192.820633,18.4173505 192.077374,23.3270809 191.584994,26.7127784 L194.45721,26.7127784 Z" id="Shape" fill-rule="nonzero"></path>
        </g>
    </g>
</svg>