<?xml version="1.0" encoding="UTF-8"?>
<svg width="214px" height="59px" viewBox="0 0 214 59" version="1.1" xmlns="http://www.w3.org/2000/svg" xmlns:xlink="http://www.w3.org/1999/xlink">
    <title>circle</title>
    <g id="Logotype---black" stroke="none" stroke-width="1" fill="none" fill-rule="evenodd">
        <g id="circle" fill="#000000">
            <path d="M42.2032036,46.1105713 C33.5744052,52.4165152 21.5187971,51.2248555 14.3217871,43.3545793 C7.12477716,35.4843031 7.13015854,23.4984608 14.3342328,15.6345125 C21.5383071,7.77056425 33.5949805,6.58949974 42.2181131,12.9030243 L48,6.11814747 C35.7401137,-3.21164946 18.304464,-1.71871918 7.84727977,9.55623052 C-2.60990442,20.8311802 -2.61652642,38.1445302 7.83202991,49.4273055 C18.2805862,60.7100808 35.7150889,62.216064 47.9821087,52.8954482 L42.2032036,46.1105713 Z" id="Path"></path>
            <path d="M44,45.1156463 L49.6339068,52 C55.6014174,46.3355006 58.9972376,38.3602513 59,30.0032776 C59.002759,21.6463038 55.6122088,13.6686779 49.6484421,8 L44.0087212,14.8843537 C48.0194529,18.828151 50.2884622,24.2897682 50.2884622,30 C50.2884622,35.7102318 48.0194529,41.171849 44.0087212,45.1156463 L44,45.1156463 Z" id="Path"></path>
            <path d="M86.7806988,50.9984959 C81.6857572,50.9984959 77.4465912,49.3240336 74.0632005,45.975109 C70.6798099,42.6261844 68.9920857,38.467855 69,33.5001208 C69,28.5323866 70.6877521,24.3740572 74.0632005,21.0251326 C77.4386489,17.676208 81.677815,16.0017457 86.7806988,16.0017457 C89.9470283,15.9568912 93.0638819,16.7772153 95.784211,18.3713783 C98.3668281,19.8608578 100.440372,22.0724322 101.740885,24.7245714 L96.7998239,27.5189219 C95.9404929,25.7418494 94.5598162,24.258522 92.8356576,23.2600272 C91.0077221,22.184116 88.9107457,21.6312608 86.7806988,21.6636739 C83.4052504,21.6636739 80.5748376,22.7943021 78.2894605,25.0555584 C76.0040834,27.3168148 74.8653659,30.1336217 74.8733081,33.505979 C74.8733081,36.8256127 76.0120256,39.6199632 78.2894605,41.8890305 C80.5668954,44.1580977 83.3973081,45.2887259 86.7806988,45.280915 C88.916538,45.3114606 91.0206979,44.7708335 92.8684193,43.7167817 C94.6259304,42.7249644 96.0582685,41.2593954 96.9963941,39.493036 L102,42.3547555 C100.558787,44.9786624 98.4074995,47.1592578 95.784211,48.6552251 C93.056599,50.2294639 89.9430345,51.039806 86.7806988,50.9984959 Z" id="Path"></path>
            <path d="M108.034662,9.93200231 C106.959546,9.95835915 105.920865,9.54489858 105.162591,8.78873753 C104.403857,8.06065002 103.983158,7.05348463 104.000517,6.00669373 C103.986245,4.95173399 104.405816,3.93648935 105.162591,3.19479968 C105.907006,2.41261165 106.950228,1.97891139 108.034662,2.00078947 C109.096814,1.98976764 110.11443,2.42327405 110.837489,3.19479968 C111.591918,3.9380456 112.011063,4.95225832 111.999564,6.00669373 C112.015479,7.05321168 111.595009,8.0598311 110.837489,8.78873753 C110.101531,9.53578121 109.087748,9.94930027 108.034662,9.93200231 Z M105.024106,50 L105.024106,16.1020501 L110.972964,16.1020501 L110.972964,50 L105.024106,50 Z" id="Shape" fill-rule="nonzero"></path>
            <path d="M123.734975,22.2157813 C125.62153,18.0719271 129.043205,16 134,16 L134,22.0804637 C131.194304,21.9471073 128.780594,22.7041011 126.75887,24.3514449 C124.737147,25.9987887 123.728216,28.6463056 123.732078,32.2939955 L123.732078,50 L118,50 L118,16.6030455 L123.734975,16.6030455 L123.734975,22.2157813 Z" id="Path"></path>
            <path d="M150.774276,50.9985711 C145.679187,50.9985711 141.441549,49.3241079 138.061363,45.9751815 C134.681177,42.6262551 132.994061,38.4679235 133,33.5001866 C133,28.5324497 134.687131,24.3741181 138.061363,21.0251917 C141.435595,17.6762653 145.673232,16.0018021 150.774276,16.0018021 C153.93688,15.9562654 157.050361,16.7745126 159.768588,18.3655779 C162.350274,19.8550581 164.423071,22.0666337 165.723115,24.7187744 L160.786812,27.5131264 C159.926391,25.7394322 158.547677,24.2586039 156.827052,23.2600875 C154.9999,22.1838869 152.903595,21.631009 150.774276,21.6637333 C147.400045,21.6637333 144.571645,22.7943621 142.289077,25.0556197 C140.006508,27.3168773 138.868201,30.1336857 138.874156,33.5060448 C138.874156,36.8256803 140.012463,39.6200323 142.289077,41.8891007 C144.56569,44.1581692 147.39409,45.288798 150.774276,45.2809871 C152.909346,45.3115327 155.012747,44.7709054 156.859802,43.716853 C158.61668,42.7250351 160.048502,41.2594653 160.986289,39.493105 L166,42.3548261 C164.553302,44.980237 162.396646,47.1607942 159.768588,48.655299 C157.043696,50.2285049 153.933457,51.0388099 150.774276,50.9985711 L150.774276,50.9985711 Z" id="Path"></path>
            <polygon id="Path" points="169 50 169 1 175 1 175 50"></polygon>
            <path d="M185.920571,36.1607618 C186.506475,39.1340794 187.873583,41.44221 190.021896,43.0851536 C192.170209,44.7280971 194.820446,45.5485921 197.972608,45.5466386 C202.364932,45.5466386 205.559082,43.9271377 207.555061,40.688136 L212.47958,43.4836797 C209.233674,48.4945599 204.351145,51 197.831991,51 C192.558859,51 188.267115,49.3463119 184.95676,46.0389356 C181.646405,42.7315593 179.994156,38.5499651 180,33.494153 C180,28.4813193 181.619062,24.3104697 184.857156,20.9816043 C188.09525,17.6527388 192.286414,15.9922132 197.430647,16 C202.313177,16 206.294391,17.7201366 209.374291,21.160355 C212.454191,24.6005733 213.996094,28.7362588 214,33.5674115 C213.99755,34.4355898 213.930966,35.3024001 213.800793,36.1607618 L185.920571,36.1607618 Z M197.430647,21.4533889 C194.325358,21.4533889 191.753241,22.3324907 189.714297,24.0906942 C187.675352,25.8488978 186.405895,28.1931693 185.905924,31.1235086 L208.140964,31.1235086 C207.654664,27.9646028 206.413525,25.5617246 204.417547,23.9148739 C202.457211,22.286042 199.978761,21.4128842 197.430647,21.4533889 L197.430647,21.4533889 Z" id="Shape" fill-rule="nonzero"></path>
        </g>
    </g>
</svg>