<?xml version="1.0" encoding="UTF-8"?>
<svg width="200px" height="73px" viewBox="0 0 200 73" version="1.1" xmlns="http://www.w3.org/2000/svg" xmlns:xlink="http://www.w3.org/1999/xlink">
    <title>kyan</title>
    <g id="Logotype---black" stroke="none" stroke-width="1" fill="none" fill-rule="evenodd">
        <g id="kyan" fill="#000000">
            <path d="M98.2310469,36.5920578 C99.612117,37.6720108 100.918363,38.8443754 102.140794,40.101083 C103.512635,41.4993983 104.866426,43.0072202 106.202166,44.6245487 C107.537906,46.2418773 108.799037,47.8832732 109.98556,49.5487365 C111.068439,51.04464 112.073386,52.5954395 112.99639,54.1949458 L106.292419,54.1949458 C105.376484,52.6766408 104.381119,51.2076938 103.310469,49.7942238 C102.181709,48.2948255 101.001203,46.8592058 99.7689531,45.4873646 C98.5899069,44.159968 97.3414721,42.8958675 96.0288809,41.700361 C94.8926811,40.6565815 93.6865037,39.6916396 92.4187726,38.8122744 L92.4187726,54.198556 L86.6606498,54.198556 L86.6606498,7.42238267 L92.3862816,6.4368231 L92.3862816,35.6101083 L95.6353791,32.3610108 C96.8267148,31.1744886 97.9963899,29.9638989 99.1444043,28.7292419 C100.292419,27.4945848 101.375451,26.3152828 102.393502,25.1913357 C103.418773,24.0649819 104.300842,23.0697954 105.039711,22.2057762 L111.768953,22.2057762 C110.825511,23.2334537 109.800241,24.3622142 108.693141,25.5920578 C107.586041,26.8219013 106.436823,28.0625752 105.245487,29.3140794 C104.058965,30.5655836 102.855596,31.8170878 101.635379,33.0685921 L98.2310469,36.5920578 Z" id="Path"></path>
            <path d="M112.570397,60.1624549 C113.137376,60.4073685 113.724379,60.6030362 114.32491,60.7472924 C115.017921,60.9291789 115.731175,61.0225812 116.447653,61.0252708 C118.705174,61.0252708 120.469314,60.5222623 121.740072,59.5162455 C123.01083,58.5102286 124.158845,56.8796631 125.184116,54.6245487 C122.599278,49.700361 120.192539,44.4801444 117.963899,38.9638989 C115.747218,33.4994308 113.88771,27.8967894 112.397112,22.1913357 L118.534296,22.1913357 C118.986763,24.0397112 119.530686,26.0300842 120.166065,28.1624549 C120.801444,30.2948255 121.509025,32.4897714 122.288809,34.7472924 C123.068592,37.0048135 123.910951,39.2611312 124.815884,41.5162455 C125.720818,43.7713598 126.66426,45.9458484 127.646209,48.0397112 C129.205776,43.7340554 130.559567,39.4669073 131.707581,35.2382671 C132.855596,31.009627 133.938628,26.6606498 134.956679,22.1913357 L140.862816,22.1913357 C139.385078,28.2250301 137.744886,34.0204573 135.942238,39.5776173 C134.139591,45.1347774 132.190132,50.3357401 130.093863,55.1805054 C129.374692,56.8371659 128.521056,58.4321476 127.541516,59.9494585 C126.739662,61.1890775 125.753618,62.2992896 124.617329,63.2418773 C123.546747,64.1019988 122.321288,64.7490413 121.00722,65.1480144 C119.538656,65.5783849 118.013935,65.7864674 116.483755,65.765343 C116.010547,65.763344 115.537919,65.7319962 115.068592,65.6714801 C114.574007,65.6101083 114.093863,65.5270758 113.624549,65.4259928 C113.155235,65.3249097 112.722022,65.2093863 112.33213,65.0866426 C112.048789,65.0030864 111.771388,64.9005687 111.501805,64.7797834 L112.570397,60.1624549 Z" id="Path"></path>
            <path d="M154.787004,21.3935018 C156.763283,21.3417237 158.732901,21.6437074 160.602888,22.2851986 C163.520186,23.2847618 165.732512,25.6941318 166.480144,28.6859206 C166.903749,30.3023666 167.110137,31.9680391 167.093863,33.6389892 L167.093863,53.6389892 L165.032491,53.9783394 C164.151625,54.1227437 163.156438,54.2563177 162.046931,54.3790614 C160.937425,54.5018051 159.734055,54.6149218 158.436823,54.7184116 C157.144404,54.8194946 155.862816,54.8700361 154.592058,54.8700361 C152.914158,54.8847338 151.24049,54.6993094 149.606498,54.3176895 C148.191541,53.9959776 146.853413,53.399891 145.66787,52.5631769 C144.546624,51.747954 143.65601,50.6558322 143.083032,49.3935018 C142.429491,47.9008692 142.113903,46.2822477 142.158845,44.6534296 C142.117416,43.0675747 142.490737,41.4983806 143.241877,40.101083 C143.941686,38.8468392 144.9461,37.789038 146.162455,37.0252708 C147.489702,36.2071558 148.947783,35.6234349 150.472924,35.299639 C152.16925,34.9252206 153.901849,34.7399741 155.638989,34.7472924 C156.216606,34.7472924 156.808664,34.7797834 157.425993,34.8411552 C158.043321,34.9025271 158.624549,34.9819495 159.180505,35.0866426 C159.736462,35.1913357 160.216606,35.2815884 160.624549,35.3610108 C161.032491,35.4404332 161.3213,35.5054152 161.487365,35.5487365 L161.487365,33.9350181 C161.486438,32.9940606 161.383551,32.0559738 161.180505,31.1371841 C160.988872,30.2474983 160.611167,29.4084259 160.072202,28.6750903 C159.500137,27.9269619 158.749046,27.3347798 157.888087,26.9530686 C156.745767,26.4785903 155.513958,26.2580966 154.277978,26.3068592 C152.622816,26.2930983 150.969821,26.4296395 149.33935,26.7148014 C148.258626,26.8911124 147.197237,27.1703616 146.169675,27.5487365 L145.487365,22.8086643 C146.680024,22.3574105 147.91842,22.0378245 149.180505,21.8555957 C151.031888,21.5352271 152.908151,21.3805834 154.787004,21.3935018 L154.787004,21.3935018 Z M155.277978,50.0722022 C156.631769,50.0722022 157.833935,50.0397112 158.888087,49.9783394 C159.768596,49.9399016 160.644217,49.8263727 161.505415,49.6389892 L161.505415,40.101083 C160.866786,39.8331039 160.193441,39.6568673 159.505415,39.5776173 C158.394583,39.4205925 157.273427,39.348182 156.151625,39.3610108 C155.235226,39.3658298 154.320046,39.4285299 153.411552,39.5487365 C152.493301,39.6582958 151.599309,39.9180779 150.765343,40.3176895 C149.985537,40.6914437 149.301457,41.2384612 148.765343,41.9169675 C148.201542,42.6913043 147.919972,43.635392 147.967509,44.5920578 C147.967509,46.6474128 148.623345,48.0734055 149.935018,48.8700361 C151.246691,49.6666667 153.027677,50.0673887 155.277978,50.0722022 Z" id="Shape" fill-rule="nonzero"></path>
            <path d="M174.108303,23.1046931 C175.422383,22.7749699 177.166065,22.4259928 179.33935,22.0577617 C181.822757,21.6661374 184.334394,21.4813872 186.848375,21.5054152 C189.389892,21.5054152 191.503008,21.866426 193.187726,22.5884477 C194.768157,23.2307678 196.155925,24.2703501 197.216606,25.6064982 C198.260277,26.9789228 198.986506,28.5657763 199.34296,30.2527076 C199.767945,32.2130037 199.97378,34.2144549 199.956679,36.2202166 L199.956679,54.1913357 L194.223827,54.1913357 L194.223827,37.4548736 C194.247258,35.7613756 194.113106,34.0693693 193.823105,32.400722 C193.630568,31.1908153 193.178597,30.0368723 192.498195,29.0180505 C191.886053,28.1578766 191.027643,27.5033702 190.036101,27.1407942 C188.810739,26.7186383 187.519385,26.5205328 186.223827,26.5559567 C185.606498,26.5559567 184.971119,26.5776173 184.314079,26.6173285 C183.65704,26.6570397 183.032491,26.7075812 182.436823,26.7689531 C181.841155,26.8303249 181.306859,26.9025271 180.837545,26.9855596 L179.823105,27.1696751 L179.823105,54.1877256 L174.108303,54.1877256 L174.108303,23.1046931 Z" id="Path"></path>
            <path d="M35.101083,37.7364621 C25.8686449,28.3042738 13.2239079,22.9918185 0.0252707581,22.9999906 L0.0252707581,49.2527076 C10.1137578,49.265157 19.0153607,55.8535144 21.9747292,65.4981949 C23.3612304,55.1057488 27.9489913,45.402811 35.101083,37.7364621 L35.101083,37.7364621 Z" id="Path"></path>
            <path d="M72.1768953,23 L72.1768953,49.2527076 C59.5088562,49.2686197 49.243349,59.534127 49.2274368,72.2021661 L22.9747292,72.2021661 C22.9747292,45.0722022 45.0469314,23 72.1768953,23 Z" id="Path"></path>
            <circle id="Oval" cx="36.101083" cy="12.9963899" r="12.9963899"></circle>
        </g>
    </g>
</svg>