<?xml version="1.0" encoding="UTF-8"?>
<svg width="224px" height="56px" viewBox="0 0 224 56" version="1.1" xmlns="http://www.w3.org/2000/svg" xmlns:xlink="http://www.w3.org/1999/xlink">
    <title>muzica</title>
    <g id="Logotype---black" stroke="none" stroke-width="1" fill="none" fill-rule="evenodd">
        <g id="muzica">
            <rect id="Rectangle" fill="#000000" x="0" y="0" width="56" height="56" rx="28"></rect>
            <path d="M29.7176652,22.0986602 L18.6891829,11 L18.6891829,31.2371092 C17.9427266,31.1187462 17.182707,31.1066574 16.4327159,31.201218 C15.0140598,31.3561735 13.6688369,31.8997112 12.5515927,32.7693869 C11.4007946,33.7246447 10.8592425,34.9421843 11.0312981,36.2011368 C11.3613064,38.6334551 13.654441,39.6908648 17.041962,39.6025173 C20.3505067,39.5169306 23.2303227,36.5103532 23.2303227,33.8047097 L23.2303227,21.8419001 L29.7007417,28.3961835 L36.4701426,21.7701177 L36.4701426,45 L41,45 L41,11.0634998 L29.7176652,22.0986602 Z" id="Path" fill="#FFFFFF"></path>
            <path d="M66,19.6202952 L71.8244945,19.6202952 L71.8244945,23.4265257 L71.9245813,23.4265257 C72.5305991,22.2034099 73.4344662,21.1489952 74.5546394,20.3584065 C75.764948,19.4605547 77.3913582,19.0116288 79.4338698,19.0116288 C83.2816505,19.0116288 85.83479,20.518147 87.0932886,23.5311832 C87.8539244,22.1035959 89.0041453,20.9164334 90.4128334,20.105025 C91.8757567,19.3421413 93.5114428,18.9628868 95.1641752,19.0033664 C96.5884658,18.9654691 98.0028937,19.2479649 99.3010954,19.8296103 C100.384504,20.338817 101.323511,21.106265 102.034021,22.0632231 C102.755323,23.0615397 103.267669,24.1927519 103.540883,25.3902321 C103.854813,26.7291899 104.00878,28.1000622 103.999614,29.4746314 L103.999614,43.9944917 L97.8831994,43.9944917 L97.8831994,30.1769387 C97.8846413,29.4532316 97.8157455,28.7310679 97.6774654,28.020442 C97.5583353,27.3715381 97.3158687,26.7509555 96.9629571,26.1916887 C96.6160709,25.6653171 96.1370496,25.2372872 95.5728629,24.9495687 C94.8730415,24.61734 94.1019031,24.4594516 93.3264708,24.4896262 C92.4835703,24.4683267 91.6488403,24.657768 90.8993664,25.0404555 C90.2503359,25.3818332 89.6905998,25.8684292 89.2646157,26.4615951 C88.8298561,27.073444 88.5183426,27.762641 88.3471535,28.4914011 C88.1606246,29.2476958 88.0672716,30.0235912 88.0691347,30.80213 L88.0691347,44 L81.9527204,44 L81.9527204,29.4663689 C81.9527204,27.944244 81.6292919,26.7342556 80.9824347,25.8364038 C80.3355776,24.9385521 79.2577913,24.4896262 77.7490757,24.4896262 C76.8614445,24.4630085 75.9792887,24.6362803 75.169061,24.9963892 C74.4925107,25.3198466 73.8985065,25.7905988 73.4314433,26.3734624 C72.9727502,26.9580847 72.6388501,27.6290001 72.4500368,28.3454313 C72.2430831,29.1068775 72.1402248,29.8923945 72.1442161,30.6809475 L72.1442161,43.980721 L66.0278019,43.980721 L66,19.6202952 Z" id="Path" fill="#000000"></path>
            <path d="M133,44.3866185 L127.017054,44.3866185 L127.017054,40.475167 L126.911288,40.475167 C126.282888,41.7321273 125.345793,42.8221677 124.181373,43.6506372 C122.956007,44.5474135 121.293284,44.9958016 119.193203,44.9958016 C117.721427,45.0374806 116.257993,44.7684154 114.905377,44.207447 C113.790197,43.7255039 112.810252,42.9941084 112.046827,42.073928 C111.305858,41.1662113 110.769411,40.11942 110.471766,39.0004478 C110.153858,37.8223446 109.995323,36.6095356 110,35.3922096 L110,20 L116.288915,20 L116.288915,32.3462942 C116.288915,33.0216329 116.323218,33.7769096 116.394682,34.6066115 C116.457687,35.4078003 116.643611,36.1955423 116.946382,36.9441103 C117.231565,37.6555932 117.700994,38.284773 118.30991,38.7716596 C118.923546,39.2623138 119.790639,39.5076409 120.911191,39.5076409 C121.822974,39.534924 122.729213,39.3614675 123.561067,39.0004478 C124.257165,38.6774486 124.86807,38.206175 125.347661,37.6222055 C125.825888,37.0371202 126.174224,36.3634473 126.371022,35.6430496 C126.584774,34.8810835 126.691493,34.0948976 126.688321,33.3055508 L126.688321,20 L132.977132,20 L133,44.3866185 Z" id="Path" fill="#000000"></path>
            <polygon id="Path" fill="#000000" points="138 38.2183791 151.031151 24.0892958 151.031151 23.9960439 138.621057 23.9960439 138.621057 19 158.384464 19 158.384464 24.6770657 145.198738 38.9983045 159 38.9983045 159 44 138.022082 44"></polygon>
            <path d="M164,10.7385115 C163.99885,9.74983717 164.407376,8.804361 165.129412,8.1246476 C165.874304,7.37875282 166.896201,6.97230138 167.952936,7.00161262 C169.013948,6.9719545 170.045227,7.35235004 170.830106,8.06288068 C171.595007,8.73674577 172.022608,9.71139158 171.999045,10.7272812 C172.022996,11.7432465 171.595326,12.7180476 170.830106,13.3916817 C170.045227,14.1022123 169.013948,14.4826078 167.952936,14.4529497 C166.896201,14.4822609 165.874304,14.0758095 165.129412,13.3299147 C164.411953,12.6563436 164.003715,11.7196526 164,10.7385115 Z M164.883765,19.1612739 L171.095518,19.1612739 L171.095518,44 L164.883765,44 L164.883765,19.1612739 Z" id="Shape" fill="#000000" fill-rule="nonzero"></path>
            <path d="M194.796651,27.0474452 C194.147197,26.3377766 193.398202,25.7296258 192.573937,25.2427007 C191.853377,24.8105157 191.033649,24.5789089 190.197175,24.5711678 C188.21549,24.5294481 186.311747,25.35598 184.970497,26.8403892 C184.347162,27.5270954 183.865442,28.3338966 183.553792,29.2131387 C182.915643,31.0133922 182.915643,32.9838097 183.553792,34.7840633 C183.865771,35.6623113 184.347474,36.4681332 184.970497,37.1540147 C186.311747,38.6384239 188.21549,39.4649558 190.197175,39.4232361 C191.105928,39.4322629 192.004629,39.2293398 192.824268,38.8300487 C193.639824,38.4289978 194.350559,37.8374289 194.898434,37.1036497 L198.939481,41.5385646 C198.318244,42.1696891 197.612564,42.7084958 196.843308,43.1390512 C195.374909,43.9716185 193.776006,44.5395995 192.117291,44.8178833 C191.481032,44.9292539 190.837214,44.9900622 190.191673,45 C188.432175,45.010021 186.685463,44.6952654 185.036518,44.070803 C181.887683,42.9111607 179.353307,40.4741751 178.038272,37.3414842 C177.33041,35.6549338 176.977153,33.8364434 177.001189,32.0027981 C176.976724,30.1700177 177.330006,28.3523509 178.038272,26.6669099 C179.352135,23.5295038 181.889147,21.0888596 185.04202,19.929197 C186.690965,19.3047346 188.437676,18.989979 190.197175,19 C191.797011,19.0103552 193.381676,19.3166044 194.873676,19.9040145 C196.452767,20.5119221 197.867109,21.4930437 199,22.7664233 L194.796651,27.0474452 Z" id="Path" fill="#000000"></path>
            <path d="M218.364607,40.9751715 L218.208068,40.9751715 C217.389587,42.311115 216.190128,43.3813805 214.758525,44.0531641 C213.310063,44.6980156 211.734794,45.0209425 210.144902,44.9989473 C209.004056,45.0006636 207.868658,44.8442934 206.772205,44.5344502 C205.718282,44.2451781 204.726137,43.7712141 203.843508,43.1353627 C202.991906,42.5181272 202.287679,41.7255007 201.780044,40.8128773 C201.243348,39.81592 200.975817,38.7002517 201.003042,37.5725906 C200.969091,36.3884311 201.219696,35.213093 201.734505,34.1420279 C202.204264,33.2198958 202.873588,32.4100009 203.695508,31.7691754 C204.554129,31.1136019 205.515366,30.5995045 206.541666,30.2469681 C207.638459,29.8697175 208.767109,29.5888005 209.914363,29.4075156 C211.082677,29.2201364 212.261073,29.0996121 213.4436,29.046551 C214.629499,28.9961838 215.745193,28.9710003 216.790681,28.9710003 L218.364607,28.9710003 L218.364607,28.2994382 C218.364607,26.7511147 217.824786,25.5908047 216.745143,24.8185084 C215.6655,24.0462121 214.28796,23.6591312 212.612521,23.6572657 C211.344669,23.6489691 210.087515,23.8857028 208.912516,24.3540113 C207.806701,24.7902231 206.795408,25.429312 205.932588,26.2371832 L202.616814,22.9773092 C203.972175,21.5898654 205.648808,20.5453556 207.503668,19.9328946 C209.364907,19.3145719 211.316744,19.0007369 213.281369,19.0039005 C214.802691,18.9689447 216.320158,19.1691216 217.778298,19.5971136 C218.871154,19.9291886 219.897542,20.4441435 220.812303,21.1193209 C221.577619,21.6960815 222.210052,22.4256135 222.667998,23.2599249 C223.089726,24.0326641 223.405547,24.8568911 223.60723,25.7111263 C223.7957,26.4984712 223.910029,27.3012052 223.948769,28.1091623 C223.982923,28.8814587 224,29.5604825 224,30.1462338 L224,44.3805506 L218.364607,44.3805506 L218.364607,40.9751715 Z M218.000299,33.2913826 L216.691066,33.2913826 C215.820142,33.2913826 214.844858,33.3258935 213.765215,33.3949151 C212.731216,33.4568223 211.706178,33.6208758 210.705595,33.8845958 C209.829188,34.0990814 209.003629,34.4792413 208.274976,35.0038658 C207.604295,35.4973116 207.225876,36.2854063 207.26459,37.1080935 C207.246375,37.6246467 207.38189,38.1351979 207.654514,38.5771354 C207.921695,38.977885 208.269408,39.3206878 208.676285,39.5844785 C209.10998,39.8656975 209.592242,40.0667295 210.099364,40.1776916 C210.613311,40.2967767 211.139569,40.3568723 211.667597,40.3567749 C213.826882,40.3567749 215.421679,39.8493724 216.451989,38.8345675 C217.482298,37.8197627 217.996504,36.4365315 217.994606,34.6848738 L218.000299,33.2913826 Z" id="Shape" fill="#000000" fill-rule="nonzero"></path>
        </g>
    </g>
</svg>