<?xml version="1.0" encoding="UTF-8"?>
<svg width="200px" height="52px" viewBox="0 0 200 52" version="1.1" xmlns="http://www.w3.org/2000/svg" xmlns:xlink="http://www.w3.org/1999/xlink">
    <title>utosia-2</title>
    <g id="Logotype---black" stroke="none" stroke-width="1" fill="none" fill-rule="evenodd">
        <g id="utosia-2" fill="#01060B">
            <path d="M25.8642766,6.6581306 C36.3301079,6.6581306 44.8143406,15.1423633 44.8143406,25.6081946 C44.8143406,36.074026 36.3301079,44.5582586 25.8642766,44.5582586 C15.3984452,44.5582586 6.91421255,36.074026 6.91421255,25.6081946 C6.92691171,15.1476279 15.4037099,6.67082976 25.8642766,6.6581306 L25.8642766,6.6581306 Z M25.8642766,0 C15.5067287,0 6.16905167,6.23923631 2.20538969,15.8083628 C-1.75827228,25.3774893 0.432656153,36.3920303 7.7565485,43.7159227 C15.0804408,51.039815 26.0949819,53.2307435 35.6641084,49.2670815 C45.2332349,45.3034195 51.4724712,35.9657425 51.4724712,25.6081946 C51.4724712,18.8164791 48.7744727,12.3029346 43.9720046,7.50046655 C39.1695366,2.69799847 32.6559921,0 25.8642766,0 Z" id="Shape" fill-rule="nonzero"></path>
            <path d="M22.1229193,14.6683739 L22.1229193,26.2432778 C22.1229193,26.865557 22.1485275,27.5006402 22.1946223,28.1485275 C22.2307421,28.7569148 22.3737736,29.3541799 22.6171575,29.9129321 C22.8550845,30.4403955 23.2435061,30.8858332 23.7336748,31.1933419 C24.2458387,31.5211268 24.9551857,31.68758 25.8796415,31.68758 C26.8040973,31.68758 27.5108835,31.5211268 28.0102433,31.1933419 C28.494395,30.8795705 28.8804381,30.4358428 29.1241997,29.9129321 C29.3774478,29.3567376 29.5258995,28.7585902 29.5620999,28.1485275 C29.6081946,27.5006402 29.6338028,26.8681178 29.6338028,26.2432778 L29.6338028,14.6683739 L35.1370038,14.6683739 L35.1370038,27.006402 C35.1370038,30.3183952 34.3798549,32.7366624 32.865557,34.2612036 C31.3512591,35.7857448 29.0226206,36.5480154 25.8796415,36.5480154 C22.7349552,36.5480154 20.401195,35.7857448 18.8783611,34.2612036 C17.3555271,32.7366624 16.5932565,30.3183952 16.5915493,27.006402 L16.5915493,14.6683739 L22.1229193,14.6683739 Z" id="Path"></path>
            <path d="M78.3738796,38.15621 C76.292787,40.0341443 73.6090482,40.9731114 70.3226633,40.9731114 C67.0362783,40.9731114 64.3533931,40.0341443 62.2740077,38.15621 C60.1946223,36.2782757 59.1549296,33.7601366 59.1549296,30.6017926 L59.1549296,10.793854 L64.0025608,10.793854 L64.0025608,30.3072983 C64.0025608,32.1135297 64.529236,33.5527102 65.5825864,34.6248399 C66.6359368,35.6969697 68.2159624,36.2330346 70.3226633,36.2330346 C72.4293641,36.2330346 74.0102433,35.6969697 75.0653009,34.6248399 C76.1203585,33.5527102 76.6470337,32.1135297 76.6453265,30.3072983 L76.6453265,10.793854 L81.4903969,10.793854 L81.4903969,30.6017926 C81.4903969,33.7601366 80.4515578,36.2782757 78.3738796,38.15621 Z" id="Path"></path>
            <polygon id="Path" points="106.230474 10.793854 106.230474 15.4494238 97.9282971 15.4494238 97.9282971 40.4225352 93.0806658 40.4225352 93.0806658 15.4494238 84.737516 15.4494238 84.737516 10.793854"></polygon>
            <path d="M132.801536,36.5070423 C129.836108,39.4844217 126.218523,40.9731114 121.948784,40.9731114 C117.679044,40.9731114 114.062313,39.4844217 111.098592,36.5070423 C108.133163,33.53137 106.650448,29.8984208 106.650448,25.6081946 C106.650448,21.3179684 108.133163,17.6850192 111.098592,14.709347 C114.062313,11.7319676 117.679044,10.2432778 121.948784,10.2432778 C126.218523,10.2432778 129.836108,11.7319676 132.801536,14.709347 C135.763551,17.6850192 137.24968,21.3179684 137.259976,25.6081946 C137.270166,29.8984208 135.784038,33.53137 132.801536,36.5070423 Z M114.512164,33.206146 C116.519846,35.2240717 118.995305,36.2330346 121.93854,36.2330346 C124.881776,36.2330346 127.361502,35.2240717 129.377721,33.206146 C131.388818,31.1882202 132.394366,28.6555698 132.394366,25.6081946 C132.394366,22.5608195 131.392232,20.028169 129.387964,18.0102433 C127.378574,15.9923175 124.898848,14.9833547 121.948784,14.9833547 C118.99872,14.9833547 116.523261,15.9923175 114.522407,18.0102433 C112.506189,20.028169 111.498079,22.5608195 111.498079,25.6081946 C111.498079,28.6555698 112.502774,31.1882202 114.512164,33.206146 L114.512164,33.206146 Z" id="Shape" fill-rule="nonzero"></path>
            <path d="M150.396927,40.9732112 C147.559539,40.9732112 145.150662,40.3243705 143.170294,39.0268886 C141.221534,37.7712282 139.757705,35.8901933 139.019206,33.6927017 L143.190781,31.2419974 C144.372172,34.5744772 146.816048,36.2398634 150.522407,36.2381562 C152.347418,36.2381562 153.717456,35.8779343 154.632522,35.1574904 C155.51781,34.4952832 156.028218,33.4458464 156.002561,32.340589 C156.05063,31.2169497 155.486083,30.1554821 154.527529,29.5672215 C153.544174,28.9355527 151.801963,28.2373026 149.300896,27.4724712 C148.143102,27.1371738 147.003681,26.7414109 145.887324,26.2868118 C144.91822,25.867948 143.993431,25.3532232 143.126761,24.7503201 C142.196808,24.131998 141.44818,23.2773068 140.957746,22.2740077 C140.457811,21.1870015 140.212573,20.0002269 140.240717,18.8040973 C140.240717,16.1698677 141.167734,14.084507 143.021767,12.5480154 C144.8758,11.0115237 147.109688,10.2432778 149.723431,10.2432778 C152.0828,10.2432778 154.147674,10.822023 155.918054,11.9795134 C157.70797,13.1542295 159.128565,14.8118856 160.015365,16.7605634 L155.918054,19.1318822 C154.680324,16.3661972 152.61545,14.9833547 149.723431,14.9833547 C148.316688,14.9833547 147.192488,15.3154076 146.350832,15.9795134 C145.519781,16.6178693 145.048535,17.6185519 145.085787,18.6658131 C145.04997,19.6934801 145.530538,20.670954 146.366197,21.2701665 C147.219804,21.9052497 148.772514,22.5753308 151.024328,23.2804097 C152.149381,23.6474605 152.971404,23.9223218 153.490397,24.1049936 C154.00939,24.2876654 154.745198,24.577038 155.697823,24.9731114 C156.459678,25.2673859 157.176782,25.6664475 157.828425,26.1587708 C158.372193,26.618261 158.885444,27.1126928 159.364917,27.6389245 C159.904446,28.2172634 160.301651,28.9134681 160.524968,29.6722151 C160.755539,30.5171347 160.864191,31.3906668 160.847631,32.2663252 C160.847631,34.9466496 159.885617,37.0704225 157.961588,38.637644 C156.037559,40.2048656 153.516005,40.9833547 150.396927,40.9732112 Z" id="Path"></path>
            <polygon id="Path" points="164.809219 10.793854 169.65685 10.793854 169.65685 40.4225352 164.809219 40.4225352"></polygon>
            <path d="M194.773367,40.4225352 L192.709347,34.4558259 L180.161332,34.4558259 L178.09475,40.4225352 L172.816901,40.4225352 L183.521127,10.793854 L189.336748,10.793854 L200,40.4225352 L194.773367,40.4225352 Z M181.751601,29.8822023 L191.108835,29.8822023 L186.427657,16.5070423 L181.751601,29.8822023 Z" id="Shape" fill-rule="nonzero"></path>
        </g>
    </g>
</svg>